<svg width="255" height="32" viewBox="0 0 255 32" fill="none" xmlns="http://www.w3.org/2000/svg">
<g clip-path="url(#clip0_5_61)">
<path d="M-1 14.1111V-1H14.1111V14.1111H-1ZM2.77778 10.3333H10.3333V2.77778H2.77778V10.3333ZM-1 33V17.8889H14.1111V33H-1ZM2.77778 29.2222H10.3333V21.6667H2.77778V29.2222ZM17.8889 14.1111V-1H33V14.1111H17.8889ZM21.6667 10.3333H29.2222V2.77778H21.6667V10.3333ZM29.2222 33V29.2222H33V33H29.2222ZM17.8889 21.6667V17.8889H21.6667V21.6667H17.8889ZM21.6667 25.4444V21.6667H25.4444V25.4444H21.6667ZM17.8889 29.2222V25.4444H21.6667V29.2222H17.8889ZM21.6667 33V29.2222H25.4444V33H21.6667ZM25.4444 29.2222V25.4444H29.2222V29.2222H25.4444ZM25.4444 21.6667V17.8889H29.2222V21.6667H25.4444ZM29.2222 25.4444V21.6667H33V25.4444H29.2222Z" fill="#0057FB"/>
</g>
<path d="M49.992 23.92L48.552 21.984C48.1253 22.0693 47.7093 22.112 47.304 22.112C46.248 22.112 45.2773 21.8667 44.392 21.376C43.5173 20.8853 42.8187 20.2027 42.296 19.328C41.784 18.4427 41.528 17.4507 41.528 16.352C41.528 15.2533 41.784 14.2667 42.296 13.392C42.8187 12.5173 43.5173 11.8347 44.392 11.344C45.2773 10.8533 46.248 10.608 47.304 10.608C48.36 10.608 49.3253 10.8533 50.2 11.344C51.0853 11.8347 51.7787 12.5173 52.28 13.392C52.792 14.2667 53.048 15.2533 53.048 16.352C53.048 17.312 52.8507 18.192 52.456 18.992C52.072 19.7813 51.5333 20.4373 50.84 20.96L53.304 23.92H49.992ZM44.328 16.352C44.328 17.344 44.5947 18.1387 45.128 18.736C45.672 19.3227 46.3973 19.616 47.304 19.616C48.2 19.616 48.9147 19.3173 49.448 18.72C49.992 18.1227 50.264 17.3333 50.264 16.352C50.264 15.36 49.992 14.5707 49.448 13.984C48.9147 13.3867 48.2 13.088 47.304 13.088C46.3973 13.088 45.672 13.3813 45.128 13.968C44.5947 14.5547 44.328 15.3493 44.328 16.352ZM60.3294 22L57.9934 17.76H57.3374V22H54.6014V10.768H59.1934C60.0787 10.768 60.8307 10.9227 61.4494 11.232C62.0787 11.5413 62.548 11.968 62.8574 12.512C63.1667 13.0453 63.3214 13.6427 63.3214 14.304C63.3214 15.0507 63.108 15.7173 62.6814 16.304C62.2654 16.8907 61.6467 17.3067 60.8254 17.552L63.4174 22H60.3294ZM57.3374 15.824H59.0334C59.5347 15.824 59.908 15.7013 60.1534 15.456C60.4094 15.2107 60.5374 14.864 60.5374 14.416C60.5374 13.9893 60.4094 13.6533 60.1534 13.408C59.908 13.1627 59.5347 13.04 59.0334 13.04H57.3374V15.824ZM64.5749 16.368C64.5749 15.2587 64.8149 14.272 65.2949 13.408C65.7749 12.5333 66.4415 11.856 67.2949 11.376C68.1589 10.8853 69.1349 10.64 70.2229 10.64C71.5562 10.64 72.6975 10.992 73.6469 11.696C74.5962 12.4 75.2309 13.36 75.5509 14.576H72.5429C72.3189 14.1067 71.9989 13.7493 71.5829 13.504C71.1775 13.2587 70.7135 13.136 70.1909 13.136C69.3482 13.136 68.6655 13.4293 68.1429 14.016C67.6202 14.6027 67.3589 15.3867 67.3589 16.368C67.3589 17.3493 67.6202 18.1333 68.1429 18.72C68.6655 19.3067 69.3482 19.6 70.1909 19.6C70.7135 19.6 71.1775 19.4773 71.5829 19.232C71.9989 18.9867 72.3189 18.6293 72.5429 18.16H75.5509C75.2309 19.376 74.5962 20.336 73.6469 21.04C72.6975 21.7333 71.5562 22.08 70.2229 22.08C69.1349 22.08 68.1589 21.84 67.2949 21.36C66.4415 20.8693 65.7749 20.192 65.2949 19.328C64.8149 18.464 64.5749 17.4773 64.5749 16.368ZM82.5384 22.112C81.4824 22.112 80.5117 21.8667 79.6264 21.376C78.7517 20.8853 78.053 20.2027 77.5304 19.328C77.0184 18.4427 76.7624 17.4507 76.7624 16.352C76.7624 15.2533 77.0184 14.2667 77.5304 13.392C78.053 12.5173 78.7517 11.8347 79.6264 11.344C80.5117 10.8533 81.4824 10.608 82.5384 10.608C83.5944 10.608 84.5597 10.8533 85.4344 11.344C86.3197 11.8347 87.013 12.5173 87.5144 13.392C88.0264 14.2667 88.2824 15.2533 88.2824 16.352C88.2824 17.4507 88.0264 18.4427 87.5144 19.328C87.0024 20.2027 86.309 20.8853 85.4344 21.376C84.5597 21.8667 83.5944 22.112 82.5384 22.112ZM82.5384 19.616C83.4344 19.616 84.149 19.3173 84.6824 18.72C85.2264 18.1227 85.4984 17.3333 85.4984 16.352C85.4984 15.36 85.2264 14.5707 84.6824 13.984C84.149 13.3867 83.4344 13.088 82.5384 13.088C81.6317 13.088 80.9064 13.3813 80.3624 13.968C79.829 14.5547 79.5624 15.3493 79.5624 16.352C79.5624 17.344 79.829 18.1387 80.3624 18.736C80.9064 19.3227 81.6317 19.616 82.5384 19.616ZM94.0125 10.768C95.1965 10.768 96.2312 11.0027 97.1165 11.472C98.0018 11.9413 98.6845 12.6027 99.1645 13.456C99.6552 14.2987 99.9005 15.2747 99.9005 16.384C99.9005 17.4827 99.6552 18.4587 99.1645 19.312C98.6845 20.1653 97.9965 20.8267 97.1005 21.296C96.2152 21.7653 95.1858 22 94.0125 22H89.8045V10.768H94.0125ZM93.8365 19.632C94.8712 19.632 95.6765 19.3493 96.2525 18.784C96.8285 18.2187 97.1165 17.4187 97.1165 16.384C97.1165 15.3493 96.8285 14.544 96.2525 13.968C95.6765 13.392 94.8712 13.104 93.8365 13.104H92.5405V19.632H93.8365ZM104.166 12.96V15.232H107.83V17.344H104.166V19.808H108.31V22H101.43V10.768H108.31V12.96H104.166ZM122.036 14.384C122.036 15.0347 121.887 15.632 121.588 16.176C121.29 16.7093 120.831 17.1413 120.212 17.472C119.594 17.8027 118.826 17.968 117.908 17.968H116.212V22H113.476V10.768H117.908C118.804 10.768 119.562 10.9227 120.18 11.232C120.799 11.5413 121.263 11.968 121.572 12.512C121.882 13.056 122.036 13.68 122.036 14.384ZM117.7 15.792C118.223 15.792 118.612 15.6693 118.868 15.424C119.124 15.1787 119.252 14.832 119.252 14.384C119.252 13.936 119.124 13.5893 118.868 13.344C118.612 13.0987 118.223 12.976 117.7 12.976H116.212V15.792H117.7ZM130.453 20.016H126.261L125.589 22H122.725L126.789 10.768H129.957L134.021 22H131.125L130.453 20.016ZM129.749 17.904L128.357 13.792L126.981 17.904H129.749ZM142.714 14.32C142.511 13.9467 142.218 13.664 141.834 13.472C141.46 13.2693 141.018 13.168 140.506 13.168C139.62 13.168 138.911 13.4613 138.378 14.048C137.844 14.624 137.578 15.3973 137.578 16.368C137.578 17.4027 137.855 18.2133 138.41 18.8C138.975 19.376 139.748 19.664 140.73 19.664C141.402 19.664 141.967 19.4933 142.426 19.152C142.895 18.8107 143.236 18.32 143.45 17.68H139.978V15.664H145.93V18.208C145.727 18.8907 145.38 19.5253 144.89 20.112C144.41 20.6987 143.796 21.1733 143.05 21.536C142.303 21.8987 141.46 22.08 140.522 22.08C139.412 22.08 138.42 21.84 137.546 21.36C136.682 20.8693 136.004 20.192 135.514 19.328C135.034 18.464 134.794 17.4773 134.794 16.368C134.794 15.2587 135.034 14.272 135.514 13.408C136.004 12.5333 136.682 11.856 137.546 11.376C138.41 10.8853 139.396 10.64 140.506 10.64C141.85 10.64 142.98 10.9653 143.898 11.616C144.826 12.2667 145.439 13.168 145.738 14.32H142.714ZM150.181 12.96V15.232H153.845V17.344H150.181V19.808H154.325V22H147.445V10.768H154.325V12.96H150.181ZM166.948 14.32C166.745 13.9467 166.452 13.664 166.068 13.472C165.695 13.2693 165.252 13.168 164.74 13.168C163.855 13.168 163.145 13.4613 162.612 14.048C162.079 14.624 161.812 15.3973 161.812 16.368C161.812 17.4027 162.089 18.2133 162.644 18.8C163.209 19.376 163.983 19.664 164.964 19.664C165.636 19.664 166.201 19.4933 166.66 19.152C167.129 18.8107 167.471 18.32 167.684 17.68H164.212V15.664H170.164V18.208C169.961 18.8907 169.615 19.5253 169.124 20.112C168.644 20.6987 168.031 21.1733 167.284 21.536C166.537 21.8987 165.695 22.08 164.756 22.08C163.647 22.08 162.655 21.84 161.78 21.36C160.916 20.8693 160.239 20.192 159.748 19.328C159.268 18.464 159.028 17.4773 159.028 16.368C159.028 15.2587 159.268 14.272 159.748 13.408C160.239 12.5333 160.916 11.856 161.78 11.376C162.644 10.8853 163.631 10.64 164.74 10.64C166.084 10.64 167.215 10.9653 168.132 11.616C169.06 12.2667 169.673 13.168 169.972 14.32H166.948ZM174.416 12.96V15.232H178.08V17.344H174.416V19.808H178.56V22H171.68V10.768H178.56V12.96H174.416ZM190.384 22H187.648L183.072 15.072V22H180.336V10.768H183.072L187.648 17.728V10.768H190.384V22ZM195.103 12.96V15.232H198.767V17.344H195.103V19.808H199.247V22H192.367V10.768H199.247V12.96H195.103ZM206.751 22L204.415 17.76H203.759V22H201.023V10.768H205.615C206.501 10.768 207.253 10.9227 207.871 11.232C208.501 11.5413 208.97 11.968 209.279 12.512C209.589 13.0453 209.743 13.6427 209.743 14.304C209.743 15.0507 209.53 15.7173 209.103 16.304C208.687 16.8907 208.069 17.3067 207.247 17.552L209.839 22H206.751ZM203.759 15.824H205.455C205.957 15.824 206.33 15.7013 206.575 15.456C206.831 15.2107 206.959 14.864 206.959 14.416C206.959 13.9893 206.831 13.6533 206.575 13.408C206.33 13.1627 205.957 13.04 205.455 13.04H203.759V15.824ZM218.453 20.016H214.261L213.589 22H210.725L214.789 10.768H217.957L222.021 22H219.125L218.453 20.016ZM217.749 17.904L216.357 13.792L214.981 17.904H217.749ZM231.338 10.768V12.96H228.362V22H225.626V12.96H222.65V10.768H231.338ZM238.023 22.112C236.967 22.112 235.996 21.8667 235.111 21.376C234.236 20.8853 233.537 20.2027 233.015 19.328C232.503 18.4427 232.247 17.4507 232.247 16.352C232.247 15.2533 232.503 14.2667 233.015 13.392C233.537 12.5173 234.236 11.8347 235.111 11.344C235.996 10.8533 236.967 10.608 238.023 10.608C239.079 10.608 240.044 10.8533 240.919 11.344C241.804 11.8347 242.497 12.5173 242.999 13.392C243.511 14.2667 243.767 15.2533 243.767 16.352C243.767 17.4507 243.511 18.4427 242.999 19.328C242.487 20.2027 241.793 20.8853 240.919 21.376C240.044 21.8667 239.079 22.112 238.023 22.112ZM238.023 19.616C238.919 19.616 239.633 19.3173 240.167 18.72C240.711 18.1227 240.983 17.3333 240.983 16.352C240.983 15.36 240.711 14.5707 240.167 13.984C239.633 13.3867 238.919 13.088 238.023 13.088C237.116 13.088 236.391 13.3813 235.847 13.968C235.313 14.5547 235.047 15.3493 235.047 16.352C235.047 17.344 235.313 18.1387 235.847 18.736C236.391 19.3227 237.116 19.616 238.023 19.616ZM251.017 22L248.681 17.76H248.025V22H245.289V10.768H249.881C250.766 10.768 251.518 10.9227 252.137 11.232C252.766 11.5413 253.236 11.968 253.545 12.512C253.854 13.0453 254.009 13.6427 254.009 14.304C254.009 15.0507 253.796 15.7173 253.369 16.304C252.953 16.8907 252.334 17.3067 251.513 17.552L254.105 22H251.017ZM248.025 15.824H249.721C250.222 15.824 250.596 15.7013 250.841 15.456C251.097 15.2107 251.225 14.864 251.225 14.416C251.225 13.9893 251.097 13.6533 250.841 13.408C250.596 13.1627 250.222 13.04 249.721 13.04H248.025V15.824Z" fill="#FFB91D"/>
<defs>
<clipPath id="clip0_5_61">
<rect width="32" height="32" fill="white"/>
</clipPath>
</defs>
</svg>
